<svg width="20" height="21" viewBox="0 0 20 21" fill="none" xmlns="http://www.w3.org/2000/svg">
<path d="M15.5541 20.3713C13.7167 20.3697 11.9081 19.9174 10.2879 19.0542L9.78795 18.7775C6.33356 16.9274 3.50154 14.1062 1.64429 10.665L1.36654 10.167C0.477536 8.54379 0.00791893 6.72575 6.98594e-07 4.8767V4.13517C-0.000468563 3.54522 0.23549 2.97949 0.655493 2.56358L2.53309 0.69316C2.71543 0.5101 2.97283 0.421867 3.22964 0.454387C3.48646 0.486908 3.71351 0.636489 3.84407 0.859174L6.34383 5.13125C6.59662 5.56608 6.52363 6.11599 6.16607 6.47042L4.06628 8.56219C3.8919 8.734 3.85126 8.99939 3.96628 9.21518L4.35514 9.94564C5.75171 12.5227 7.8762 14.6352 10.4657 16.0217L11.1989 16.4202C11.4155 16.5347 11.6819 16.4943 11.8544 16.3205L13.9542 14.2288C14.31 13.8726 14.862 13.7999 15.2985 14.0517L19.587 16.5419C19.8105 16.672 19.9607 16.8982 19.9933 17.154C20.026 17.4098 19.9374 17.6662 19.7537 17.8479L17.8761 19.7183C17.4585 20.1367 16.8906 20.3717 16.2984 20.3713H15.5541Z" fill="#7B7B7B"/>
</svg>
