<svg width="135" height="13" viewBox="0 0 135 13" fill="none" xmlns="http://www.w3.org/2000/svg">
<path d="M12.8555 0.431954V12H10.9595V4.52796C10.9595 4.22929 10.9755 3.90662 11.0075 3.55995L7.51152 10.128C7.34619 10.4426 7.09286 10.6 6.75152 10.6H6.44752C6.10619 10.6 5.85286 10.4426 5.68752 10.128L2.15152 3.53595C2.16752 3.71195 2.18086 3.88529 2.19152 4.05595C2.20219 4.22662 2.20752 4.38396 2.20752 4.52796V12H0.311523V0.431954H1.93552C2.03152 0.431954 2.11419 0.434621 2.18352 0.439955C2.25286 0.445288 2.31419 0.458621 2.36752 0.479955C2.42619 0.501288 2.47686 0.535954 2.51952 0.583955C2.56752 0.631955 2.61286 0.695954 2.65552 0.775954L6.11952 7.19995C6.21019 7.37062 6.29286 7.54662 6.36752 7.72795C6.44752 7.90929 6.52486 8.09596 6.59952 8.28796C6.67419 8.09062 6.75152 7.90129 6.83152 7.71995C6.91152 7.53329 6.99686 7.35462 7.08752 7.18395L10.5035 0.775954C10.5462 0.695954 10.5915 0.631955 10.6395 0.583955C10.6875 0.535954 10.7382 0.501288 10.7915 0.479955C10.8502 0.458621 10.9142 0.445288 10.9835 0.439955C11.0529 0.434621 11.1355 0.431954 11.2315 0.431954H12.8555Z" fill="black"/>
<path d="M29.5485 7.63196L28.1405 3.78395C28.0712 3.61329 27.9992 3.41062 27.9245 3.17595C27.8499 2.94129 27.7752 2.68795 27.7005 2.41595C27.6312 2.68795 27.5592 2.94395 27.4845 3.18396C27.4099 3.41862 27.3379 3.62395 27.2685 3.79995L25.8685 7.63196H29.5485ZM33.3485 12H31.6845C31.4979 12 31.3459 11.9546 31.2285 11.864C31.1112 11.768 31.0232 11.6506 30.9645 11.512L30.1005 9.15195H25.3085L24.4445 11.512C24.4019 11.6346 24.3192 11.7466 24.1965 11.848C24.0739 11.9493 23.9219 12 23.7405 12H22.0605L26.6125 0.431954H28.8045L33.3485 12Z" fill="black"/>
<path d="M52.2979 0.431954V12H51.1939C51.0232 12 50.8792 11.9733 50.7619 11.92C50.6499 11.8613 50.5406 11.7653 50.4339 11.632L44.3939 3.91996C44.4259 4.27195 44.4419 4.59729 44.4419 4.89595V12H42.5459V0.431954H43.6739C43.7646 0.431954 43.8419 0.437288 43.9059 0.447954C43.9752 0.453288 44.0339 0.469288 44.0819 0.495955C44.1352 0.517288 44.1859 0.551955 44.2339 0.599955C44.2819 0.642621 44.3352 0.701288 44.3939 0.775954L50.4579 8.51995C50.4419 8.33329 50.4286 8.14929 50.4179 7.96796C50.4072 7.78662 50.4019 7.61862 50.4019 7.46395V0.431954H52.2979Z" fill="black"/>
<path d="M65.034 12H62.874V0.431954H65.034V12Z" fill="black"/>
<path d="M77.784 2.14395V5.56796H82.12V7.28795H77.784V12H75.624V0.431954H82.92V2.14395H77.784Z" fill="black"/>
<path d="M94.8465 2.14395V5.35195H98.8945V7.00796H94.8465V10.28H99.9825V12H92.6865V0.431954H99.9825V2.14395H94.8465Z" fill="black"/>
<path d="M116.05 2.53595C115.986 2.64795 115.916 2.73062 115.842 2.78395C115.772 2.83195 115.684 2.85596 115.578 2.85596C115.466 2.85596 115.343 2.81595 115.21 2.73595C115.082 2.65062 114.927 2.55729 114.746 2.45595C114.564 2.35462 114.351 2.26395 114.106 2.18395C113.866 2.09862 113.58 2.05595 113.25 2.05595C112.951 2.05595 112.69 2.09329 112.466 2.16795C112.242 2.23729 112.052 2.33595 111.898 2.46395C111.748 2.59195 111.636 2.74662 111.562 2.92795C111.487 3.10395 111.45 3.29862 111.45 3.51195C111.45 3.78395 111.524 4.01062 111.674 4.19195C111.828 4.37329 112.031 4.52796 112.282 4.65595C112.532 4.78395 112.818 4.89862 113.138 4.99995C113.458 5.10129 113.786 5.21062 114.122 5.32795C114.458 5.43995 114.786 5.57329 115.106 5.72795C115.426 5.87729 115.711 6.06929 115.962 6.30396C116.212 6.53329 116.412 6.81596 116.562 7.15196C116.716 7.48796 116.794 7.89596 116.794 8.37596C116.794 8.89862 116.703 9.38929 116.522 9.84795C116.346 10.3013 116.084 10.6986 115.738 11.04C115.396 11.376 114.978 11.6426 114.482 11.84C113.986 12.032 113.418 12.128 112.778 12.128C112.41 12.128 112.047 12.0906 111.69 12.016C111.332 11.9466 110.988 11.8453 110.658 11.712C110.332 11.5786 110.026 11.4186 109.738 11.232C109.45 11.0453 109.194 10.8373 108.97 10.608L109.602 9.57596C109.655 9.50129 109.724 9.43996 109.81 9.39196C109.895 9.33862 109.986 9.31195 110.082 9.31195C110.215 9.31195 110.359 9.36795 110.514 9.47995C110.668 9.58662 110.852 9.70662 111.066 9.83996C111.279 9.97329 111.527 10.096 111.81 10.208C112.098 10.3146 112.442 10.368 112.842 10.368C113.455 10.368 113.93 10.224 114.266 9.93596C114.602 9.64262 114.77 9.22395 114.77 8.67995C114.77 8.37595 114.692 8.12795 114.538 7.93596C114.388 7.74396 114.188 7.58395 113.938 7.45596C113.687 7.32262 113.402 7.21062 113.082 7.11996C112.762 7.02929 112.436 6.93062 112.106 6.82396C111.775 6.71729 111.45 6.58929 111.13 6.43995C110.81 6.29062 110.524 6.09595 110.274 5.85596C110.023 5.61595 109.82 5.31729 109.666 4.95995C109.516 4.59729 109.442 4.15195 109.442 3.62395C109.442 3.20262 109.524 2.79195 109.69 2.39195C109.86 1.99195 110.106 1.63729 110.426 1.32795C110.746 1.01862 111.14 0.770621 111.61 0.583955C112.079 0.397288 112.618 0.303955 113.226 0.303955C113.908 0.303955 114.538 0.410622 115.114 0.623955C115.69 0.837288 116.18 1.13595 116.586 1.51995L116.05 2.53595Z" fill="black"/>
<path d="M134.751 2.19995H131.263V12H129.111V2.19995H125.623V0.431954H134.751V2.19995Z" fill="black"/>
</svg>
