<svg width="0" height="0" class="hidden">
  <symbol fill="none" xmlns="http://www.w3.org/2000/svg" viewBox="0 0 24 12" id="icon-arrow">
    <path d="M23.5303 6.53033C23.8232 6.23744 23.8232 5.76257 23.5303 5.46967L18.7574 0.696701C18.4645 0.403807 17.9896 0.403807 17.6967 0.696701C17.4038 0.989594 17.4038 1.46447 17.6967 1.75736L21.9393 6L17.6967 10.2426C17.4038 10.5355 17.4038 11.0104 17.6967 11.3033C17.9896 11.5962 18.4645 11.5962 18.7574 11.3033L23.5303 6.53033ZM-6.55671e-08 6.75L23 6.75L23 5.25L6.55671e-08 5.25L-6.55671e-08 6.75Z" fill="#7B7B7B"></path>
  </symbol>
  <symbol fill="none" xmlns="http://www.w3.org/2000/svg" viewBox="0 0 20 17" id="icon-email">
    <path fill-rule="evenodd" clip-rule="evenodd" d="M2 0.252441H18C19.1046 0.252441 20 1.14444 20 2.24478V14.1988C20 15.2992 19.1046 16.1912 18 16.1912H2C0.89543 16.1912 0 15.2992 0 14.1988V2.24478C0 1.14444 0.89543 0.252441 2 0.252441ZM11.6499 11.6587L17.9999 7.22566V5.13367L10.6499 10.264C10.2591 10.5343 9.74081 10.5343 9.34994 10.264L1.99994 5.13367V7.22566L8.34994 11.6587C9.34089 12.3487 10.659 12.3487 11.6499 11.6587Z" fill="#7B7B7B"></path>
  </symbol>
  <symbol fill="none" xmlns="http://www.w3.org/2000/svg" viewBox="0 0 9 16" id="icon-facebook">
    <path d="M8.55 2.66667H5.85C5.35294 2.66667 4.95 3.06464 4.95 3.55556V6.22222H8.55C8.65236 6.21998 8.74944 6.26701 8.8103 6.34834C8.87116 6.42966 8.8882 6.53512 8.856 6.63111L8.19 8.58667C8.12863 8.76615 7.95881 8.88748 7.767 8.88889H4.95V15.5556C4.95 15.801 4.74853 16 4.5 16H2.25C2.00147 16 1.8 15.801 1.8 15.5556V8.88889H0.45C0.201472 8.88889 0 8.6899 0 8.44444V6.66667C0 6.42121 0.201472 6.22222 0.45 6.22222H1.8V3.55556C1.8 1.59188 3.41177 0 5.4 0H8.55C8.79853 0 9 0.198985 9 0.444444V2.22222C9 2.46768 8.79853 2.66667 8.55 2.66667Z" fill="black"></path>
  </symbol>
  <symbol fill="none" xmlns="http://www.w3.org/2000/svg" viewBox="0 0 16 16" id="icon-linkedin">
    <path fill-rule="evenodd" clip-rule="evenodd" d="M0 1.88235C0 0.842758 0.818652 0 1.82851 0C2.31346 0 2.77855 0.198319 3.12146 0.551328C3.46437 0.904338 3.65702 1.38312 3.65702 1.88235C3.65702 2.92195 2.83837 3.76471 1.82851 3.76471C0.818652 3.76471 0 2.92195 0 1.88235ZM15.9995 9.79762C16.031 7.75988 14.6806 5.97421 12.7539 5.50586C11.4627 5.21965 10.1168 5.59495 9.14255 6.51291V6.11762C9.14255 5.85772 8.93789 5.64703 8.68542 5.64703H6.39978C6.14732 5.64703 5.94266 5.85772 5.94266 6.11762V15.5294C5.94266 15.7893 6.14732 16 6.39978 16H8.68542C8.93789 16 9.14255 15.7893 9.14255 15.5294V10.2211C9.11997 9.27594 9.7599 8.45049 10.6602 8.2635C11.1963 8.16824 11.7457 8.32365 12.1593 8.68751C12.5728 9.05137 12.8075 9.58589 12.7996 10.1459V15.5294C12.7996 15.7893 13.0042 16 13.2567 16H15.5423C15.7948 16 15.9995 15.7893 15.9995 15.5294V9.79762ZM3.65702 6.11762V15.5294C3.65702 15.7893 3.45236 16 3.19989 16H0.914255C0.66179 16 0.457127 15.7893 0.457127 15.5294V6.11762C0.457127 5.85772 0.66179 5.64703 0.914255 5.64703H3.19989C3.45236 5.64703 3.65702 5.85772 3.65702 6.11762Z" fill="black"></path>
  </symbol>
  <symbol fill="none" xmlns="http://www.w3.org/2000/svg" viewBox="0 0 16 14" id="icon-reply">
    <path d="M8 4C13.2 4 16 7.8 16 14C14.5 11.6 13.3 10 8 10V14L0 7L8 0V4Z" fill="#7B7B7B"></path>
  </symbol>
  <symbol fill="none" xmlns="http://www.w3.org/2000/svg" viewBox="0 0 16 16" id="icon-search">
    <path fill-rule="evenodd" clip-rule="evenodd" d="M12.331 11.0715L15.8859 14.6313C16.0447 14.8079 16.0368 15.0783 15.8681 15.2454L15.246 15.8684C15.1626 15.9526 15.049 16 14.9305 16C14.812 16 14.6985 15.9526 14.615 15.8684L11.0601 12.3085C10.9618 12.21 10.8726 12.1028 10.7935 11.9881L10.127 11.0982C9.02413 11.9801 7.6546 12.4602 6.24327 12.4598C3.33502 12.4699 0.807867 10.461 0.157951 7.62231C-0.491966 4.78365 0.90881 1.87288 3.53098 0.613257C6.15315 -0.646363 9.29689 0.0813446 11.101 2.36555C12.9052 4.64977 12.8882 7.88086 11.0601 10.1459L11.9489 10.76C12.0877 10.849 12.2159 10.9535 12.331 11.0715ZM1.79968 6.23008C1.79968 8.68763 3.78915 10.6799 6.24329 10.6799C7.42181 10.6799 8.55206 10.2111 9.3854 9.37656C10.2187 8.54206 10.6869 7.41024 10.6869 6.23008C10.6869 3.77252 8.69743 1.78027 6.24329 1.78027C3.78915 1.78027 1.79968 3.77252 1.79968 6.23008Z" fill="black"></path>
  </symbol>
  <symbol fill="none" xmlns="http://www.w3.org/2000/svg" viewBox="0 0 20 21" id="icon-tel">
    <path d="M15.5541 20.3713C13.7167 20.3697 11.9081 19.9174 10.2879 19.0542L9.78795 18.7775C6.33356 16.9274 3.50154 14.1062 1.64429 10.665L1.36654 10.167C0.477536 8.54379 0.00791893 6.72575 6.98594e-07 4.8767V4.13517C-0.000468563 3.54522 0.23549 2.97949 0.655493 2.56358L2.53309 0.69316C2.71543 0.5101 2.97283 0.421867 3.22964 0.454387C3.48646 0.486908 3.71351 0.636489 3.84407 0.859174L6.34383 5.13125C6.59662 5.56608 6.52363 6.11599 6.16607 6.47042L4.06628 8.56219C3.8919 8.734 3.85126 8.99939 3.96628 9.21518L4.35514 9.94564C5.75171 12.5227 7.8762 14.6352 10.4657 16.0217L11.1989 16.4202C11.4155 16.5347 11.6819 16.4943 11.8544 16.3205L13.9542 14.2288C14.31 13.8726 14.862 13.7999 15.2985 14.0517L19.587 16.5419C19.8105 16.672 19.9607 16.8982 19.9933 17.154C20.026 17.4098 19.9374 17.6662 19.7537 17.8479L17.8761 19.7183C17.4585 20.1367 16.8906 20.3717 16.2984 20.3713H15.5541Z" fill="#7B7B7B"></path>
  </symbol>
  <symbol fill="none" xmlns="http://www.w3.org/2000/svg" viewBox="0 0 19 16" id="icon-twitter">
    <path d="M18.9722 2.31885C18.482 2.96671 17.8894 3.53184 17.2174 3.99243C17.2174 4.16166 17.2174 4.3309 17.2174 4.50954C17.2227 7.58287 15.9836 10.5298 13.7778 12.6897C11.5719 14.8496 8.58389 16.0417 5.48351 15.9989C3.69111 16.0048 1.92167 15.5993 0.313786 14.8142C0.227089 14.7767 0.171171 14.6917 0.1715 14.598V14.4946C0.1715 14.3595 0.28192 14.2501 0.418129 14.2501C2.18001 14.1926 3.87904 13.5874 5.27482 12.5201C3.68007 12.4883 2.24521 11.5523 1.58487 10.1132C1.55152 10.0346 1.56191 9.94442 1.61228 9.87529C1.66265 9.80615 1.74573 9.76804 1.8315 9.77471C2.31618 9.82297 2.8057 9.77828 3.27333 9.64308C1.51286 9.28103 0.19007 7.83309 0.000757292 6.06088C-0.00597115 5.97587 0.0324846 5.89352 0.102232 5.84359C0.171979 5.79366 0.262936 5.78337 0.342243 5.81643C0.814677 6.02295 1.32467 6.13173 1.84099 6.1361C0.298401 5.13303 -0.367895 3.22515 0.218929 1.49147C0.279503 1.32301 0.425032 1.19856 0.602036 1.16385C0.779041 1.12915 0.961411 1.18931 1.08213 1.32223C3.16376 3.51713 6.02394 4.82506 9.05963 4.97024C8.98187 4.66284 8.94362 4.34694 8.9458 4.03003C8.97419 2.36834 10.012 0.888063 11.5733 0.282222C13.1347 -0.32362 14.9106 0.0648726 16.0696 1.26582C16.8596 1.11671 17.6234 0.853801 18.3367 0.485449C18.3889 0.453133 18.4552 0.453133 18.5074 0.485449C18.54 0.537233 18.54 0.602901 18.5074 0.654686C18.1619 1.43845 17.5783 2.09581 16.8379 2.5351C17.4863 2.46061 18.1232 2.30909 18.7351 2.0838C18.7866 2.04906 18.8543 2.04906 18.9058 2.0838C18.949 2.10336 18.9812 2.14077 18.994 2.18606C19.0068 2.23135 18.9988 2.27993 18.9722 2.31885Z" fill="black"></path>
  </symbol>
</svg>
<svg class="icon">
  <use xlink:href="#icon-arrow"></use>
</svg>
<svg class="icon">
  <use xlink:href="#icon-email"></use>
</svg>
<svg class="icon">
  <use xlink:href="#icon-facebook"></use>
</svg>
<svg class="icon">
  <use xlink:href="#icon-linkedin"></use>
</svg>
<svg class="icon">
  <use xlink:href="#icon-reply"></use>
</svg>
<svg class="icon">
  <use xlink:href="#icon-search"></use>
</svg>
<svg class="icon">
  <use xlink:href="#icon-tel"></use>
</svg>
<svg class="icon">
  <use xlink:href="#icon-twitter"></use>
</svg>